<svg width="23" height="17" viewBox="0 0 23 17" fill="none" xmlns="http://www.w3.org/2000/svg">
<path d="M7.75259 16.337C6.43028 14.9486 7.45507 12.2709 7.68647 10.023C7.38895 10.3205 4.57904 16.899 2.00053 16.899C1.96747 16.899 1.90136 16.899 1.8683 16.899C-0.478807 16.6676 -0.181286 13.4279 0.545987 11.4775H4.31458C3.15755 14.6841 4.74433 13.3618 5.83524 11.3453C8.01706 6.91553 8.05012 6.81636 10.4303 0.138672H14.5956C13.3724 3.94032 12.3146 7.34529 11.8187 11.2792C11.8187 11.4114 11.8848 11.5767 12.0501 11.5106C12.9096 11.3783 17.5708 0.865945 18.0005 0.138672H22.1658C22.1658 0.138672 17.7361 12.3701 18.4633 13.5271C18.827 14.1883 19.3228 12.9321 19.7856 12.4362L20.4468 13.0974C19.2237 14.4527 17.8352 16.9321 15.8848 16.9321C15.7195 16.9321 15.5873 16.899 15.422 16.899C15.1245 16.8329 14.827 16.6676 14.6286 16.4692C12.3807 14.5188 16.4468 7.24611 16.0171 6.7833C15.8848 6.7833 15.7526 7.14694 15.5212 7.64281C14.298 10.1883 11.4551 16.9321 9.10797 16.9321C8.71127 16.899 8.14929 16.7668 7.75259 16.337Z" fill="white"/>
</svg>
